<svg xmlns="http://www.w3.org/2000/svg" xmlns:xlink="http://www.w3.org/1999/xlink" width="850" zoomAndPan="magnify" viewBox="0 0 637.5 101.249998" height="135" preserveAspectRatio="xMidYMid meet" version="1.0"><defs><clipPath id="eb707c5774"><path d="M 392 5 L 634 5 L 634 100.503906 L 392 100.503906 Z M 392 5 " clip-rule="nonzero"/></clipPath></defs><path fill="#90b823" d="M 38.957031 24.050781 L 35.402344 43.152344 C 38.621094 43.082031 41.105469 42.285156 42.855469 40.761719 C 44.605469 39.242188 45.785156 36.855469 46.390625 33.601562 C 46.980469 30.417969 46.730469 28.027344 45.636719 26.441406 C 44.546875 24.84375 42.625 24.050781 39.882812 24.050781 Z M 3.503906 87.554688 L 18.414062 7.421875 L 45.585938 7.421875 C 54.777344 7.421875 61.601562 9.632812 66.070312 14.0625 C 70.539062 18.488281 72.0625 24.507812 70.644531 32.121094 C 69.773438 36.800781 67.84375 40.796875 64.851562 44.113281 C 61.863281 47.421875 57.808594 50.066406 52.691406 52.039062 L 62.824219 87.554688 L 37.792969 87.554688 L 32.910156 56.539062 L 27.132812 87.554688 Z M 90.398438 52.371094 L 103.082031 52.371094 C 103.675781 49.1875 103.589844 46.800781 102.824219 45.210938 C 102.054688 43.613281 100.613281 42.820312 98.488281 42.820312 C 96.828125 42.820312 95.339844 43.601562 94.027344 45.152344 C 92.71875 46.707031 91.5 49.113281 90.398438 52.371094 Z M 118.152344 67.902344 C 116.074219 74.488281 112.417969 79.675781 107.171875 83.464844 C 101.933594 87.25 95.757812 89.144531 88.652344 89.144531 C 80.3125 89.144531 74.355469 86.59375 70.78125 81.488281 C 67.21875 76.375 66.3125 69.109375 68.070312 59.667969 C 69.832031 50.195312 73.480469 42.84375 79.011719 37.609375 C 84.542969 32.375 91.402344 29.757812 99.589844 29.757812 C 108.511719 29.757812 114.738281 32.082031 118.277344 36.730469 C 121.8125 41.375 122.710938 48.382812 120.964844 57.75 C 120.761719 58.84375 120.597656 59.683594 120.472656 60.246094 C 120.347656 60.816406 120.203125 61.332031 120.039062 61.808594 L 88.640625 61.808594 L 88.5 62.578125 C 87.730469 66.714844 87.667969 69.679688 88.320312 71.46875 C 88.972656 73.265625 90.417969 74.15625 92.65625 74.15625 C 94.316406 74.15625 95.753906 73.644531 96.96875 72.625 C 98.183594 71.597656 99.21875 70.023438 100.078125 67.902344 Z M 155.207031 86.675781 C 153.503906 87.515625 151.707031 88.140625 149.851562 88.539062 C 147.976562 88.941406 145.902344 89.144531 143.625 89.144531 C 135.980469 89.144531 130.449219 86.503906 127.027344 81.214844 C 123.609375 75.929688 122.757812 68.675781 124.472656 59.453125 C 126.15625 50.410156 129.765625 43.203125 135.308594 37.828125 C 140.847656 32.449219 147.378906 29.761719 154.910156 29.761719 C 156.992188 29.761719 158.902344 29.941406 160.628906 30.304688 C 162.359375 30.671875 163.9375 31.242188 165.378906 32.003906 L 162.171875 49.242188 C 161.535156 48.808594 160.832031 48.484375 160.089844 48.28125 C 159.355469 48.082031 158.546875 47.976562 157.660156 47.976562 C 155.417969 47.976562 153.441406 49.007812 151.726562 51.050781 C 150.015625 53.101562 148.828125 55.90625 148.167969 59.453125 C 147.5 63.035156 147.613281 65.734375 148.515625 67.550781 C 149.410156 69.359375 151.082031 70.261719 153.511719 70.261719 C 154.203125 70.261719 154.96875 70.160156 155.796875 69.960938 C 156.625 69.753906 157.519531 69.472656 158.476562 69.109375 Z M 161.820312 87.554688 L 178.09375 0.121094 L 199.582031 0.121094 L 183.3125 87.554688 Z M 218.203125 59.453125 C 217.460938 63.445312 217.335938 66.441406 217.832031 68.449219 C 218.324219 70.464844 219.441406 71.46875 221.179688 71.46875 C 222.921875 71.46875 224.433594 70.441406 225.726562 68.367188 C 227.015625 66.308594 228.023438 63.328125 228.746094 59.453125 C 229.484375 55.5 229.585938 52.484375 229.0625 50.417969 C 228.542969 48.359375 227.410156 47.316406 225.675781 47.316406 C 223.976562 47.316406 222.488281 48.347656 221.222656 50.398438 C 219.949219 52.445312 218.945312 55.460938 218.203125 59.453125 Z M 223.980469 87.554688 L 225.132812 81.351562 C 222.503906 84.054688 219.945312 86.03125 217.457031 87.28125 C 215.058594 88.5 212.410156 89.136719 209.722656 89.144531 C 203.816406 89.144531 199.671875 86.539062 197.304688 81.324219 C 194.933594 76.113281 194.621094 68.820312 196.367188 59.453125 C 198.121094 50.015625 201.132812 42.699219 205.394531 37.523438 C 209.660156 32.351562 214.789062 29.757812 220.773438 29.757812 C 223.480469 29.757812 225.835938 30.371094 227.847656 31.597656 C 229.859375 32.820312 231.679688 34.769531 233.308594 37.441406 L 234.4375 31.347656 L 255.929688 31.347656 L 245.472656 87.554688 Z M 253.347656 87.554688 L 263.808594 31.347656 L 284.433594 31.347656 L 282.875 39.691406 C 285.484375 36.472656 288.292969 34.089844 291.300781 32.554688 C 294.3125 31.015625 297.628906 30.253906 301.261719 30.253906 C 304.660156 30.253906 307.324219 31.027344 309.253906 32.589844 C 311.1875 34.140625 312.359375 36.511719 312.769531 39.691406 C 315.03125 36.472656 317.597656 34.089844 320.46875 32.554688 C 323.34375 31.015625 326.617188 30.253906 330.285156 30.253906 C 334.804688 30.253906 338.011719 31.535156 339.910156 34.089844 C 341.804688 36.660156 342.300781 40.386719 341.386719 45.292969 L 333.519531 87.550781 L 312.03125 87.550781 L 318.117188 54.839844 C 318.445312 53.089844 318.363281 51.789062 317.859375 50.949219 C 317.359375 50.101562 316.433594 49.679688 315.082031 49.679688 C 313.84375 49.679688 312.789062 50.167969 311.910156 51.136719 C 311.039062 52.109375 310.441406 53.453125 310.121094 55.171875 L 304.09375 87.550781 L 282.71875 87.550781 L 288.808594 54.839844 C 289.132812 53.089844 289.046875 51.789062 288.546875 50.949219 C 288.046875 50.101562 287.121094 49.679688 285.769531 49.679688 C 284.496094 49.679688 283.410156 50.167969 282.515625 51.136719 C 281.621094 52.109375 281.015625 53.453125 280.695312 55.171875 L 274.667969 87.550781 Z M 366.542969 52.371094 L 379.230469 52.371094 C 379.820312 49.1875 379.734375 46.800781 378.972656 45.210938 C 378.207031 43.613281 376.757812 42.820312 374.636719 42.820312 C 372.976562 42.820312 371.488281 43.601562 370.175781 45.152344 C 368.863281 46.707031 367.652344 49.113281 366.542969 52.371094 Z M 394.296875 67.902344 C 392.222656 74.488281 388.5625 79.675781 383.320312 83.464844 C 378.078125 87.25 371.902344 89.144531 364.796875 89.144531 C 356.457031 89.144531 350.5 86.59375 346.933594 81.488281 C 343.363281 76.375 342.457031 69.109375 344.214844 59.667969 C 345.980469 50.195312 349.625 42.84375 355.15625 37.609375 C 360.6875 32.375 367.546875 29.757812 375.734375 29.757812 C 384.65625 29.757812 390.878906 32.082031 394.421875 36.730469 C 397.960938 41.375 398.859375 48.382812 397.113281 57.75 C 396.90625 58.84375 396.742188 59.683594 396.621094 60.246094 C 396.492188 60.816406 396.351562 61.332031 396.179688 61.808594 L 364.785156 61.808594 L 364.644531 62.578125 C 363.875 66.714844 363.816406 69.679688 364.464844 71.46875 C 365.117188 73.265625 366.5625 74.15625 368.804688 74.15625 C 370.464844 74.15625 371.902344 73.644531 373.113281 72.625 C 374.328125 71.597656 375.367188 70.023438 376.222656 67.902344 Z M 394.296875 67.902344 " fill-opacity="1" fill-rule="nonzero"/><g clip-path="url(#eb707c5774)"><path fill="#007535" d="M 424.753906 59.5625 L 434.140625 59.5625 L 434.917969 29.867188 Z M 392.378906 87.554688 L 425.832031 7.421875 L 452.417969 7.421875 L 455.980469 87.554688 L 432.988281 87.554688 L 433.386719 75.75 L 419.429688 75.75 L 415.433594 87.554688 Z M 488.386719 46.992188 C 486.835938 55.300781 486.355469 60.988281 486.945312 64.0625 C 487.535156 67.136719 489.277344 68.675781 492.167969 68.675781 C 495.027344 68.675781 497.304688 67.164062 499.007812 64.144531 C 500.707031 61.128906 502.339844 55.40625 503.910156 46.988281 C 505.476562 38.574219 505.96875 32.855469 505.398438 29.816406 C 504.820312 26.777344 503.105469 25.257812 500.25 25.257812 C 497.351562 25.257812 495.039062 26.796875 493.3125 29.863281 C 491.574219 32.941406 489.933594 38.652344 488.382812 46.988281 M 498.0625 100.503906 L 491.101562 89.035156 C 490.835938 89.035156 490.417969 89.050781 489.847656 89.085938 C 489.433594 89.117188 489.011719 89.136719 488.59375 89.144531 C 478.4375 89.144531 471.25 85.523438 467.039062 78.277344 C 462.828125 71.035156 461.953125 60.78125 464.414062 47.542969 C 466.886719 34.300781 471.558594 24.03125 478.457031 16.753906 C 485.359375 9.472656 493.824219 5.828125 503.867188 5.828125 C 513.871094 5.828125 520.945312 9.457031 525.097656 16.722656 C 529.25 23.984375 530.09375 34.261719 527.617188 47.542969 C 526.195312 55.191406 524.03125 61.832031 521.128906 67.464844 C 518.230469 73.097656 514.519531 77.855469 510.011719 81.738281 L 518.546875 91.941406 L 498.058594 100.503906 M 531.929688 58.902344 L 541.511719 7.417969 L 565.085938 7.417969 L 555.109375 61.042969 C 554.671875 63.382812 554.792969 65.113281 555.476562 66.226562 C 556.15625 67.34375 557.425781 67.902344 559.28125 67.902344 C 561.167969 67.902344 562.664062 67.34375 563.761719 66.226562 C 564.855469 65.117188 565.621094 63.382812 566.058594 61.042969 L 576.039062 7.417969 L 599.730469 7.417969 L 590.148438 58.902344 C 588.203125 69.367188 584.433594 77.019531 578.835938 81.875 C 573.242188 86.722656 565.402344 89.144531 555.328125 89.144531 C 545.285156 89.144531 538.390625 86.722656 534.632812 81.875 C 530.886719 77.019531 529.984375 69.371094 531.929688 58.902344 Z M 594.550781 87.554688 L 609.460938 7.421875 L 633.09375 7.421875 L 618.1875 87.554688 Z M 594.550781 87.554688 " fill-opacity="1" fill-rule="nonzero"/></g></svg>